<svg width="64" height="6" viewBox="0 0 64 6" fill="none" xmlns="http://www.w3.org/2000/svg">
<path fill-rule="evenodd" clip-rule="evenodd" d="M27.0815 5.76081C26.697 5.92027 26.2842 6 25.8432 6C25.3969 6 24.9827 5.92027 24.6009 5.76081C24.2191 5.60135 23.887 5.38378 23.6046 5.10811C23.3223 4.83243 23.1005 4.51351 22.9391 4.15135C22.7778 3.78919 22.6971 3.40541 22.6971 3C22.6971 2.59459 22.7778 2.21081 22.9391 1.84865C23.1005 1.48649 23.3223 1.16757 23.6046 0.891892C23.887 0.616216 24.2191 0.398649 24.6009 0.239189C24.9827 0.0797297 25.3969 0 25.8432 0C26.2842 0 26.697 0.0797297 27.0815 0.239189C27.466 0.398649 27.7995 0.616216 28.0818 0.891892C28.3642 1.16757 28.586 1.48649 28.7473 1.84865C28.9087 2.21081 28.9893 2.59459 28.9893 3C28.9893 3.40541 28.9087 3.78919 28.7473 4.15135C28.586 4.51351 28.3642 4.83243 28.0818 5.10811C27.7995 5.38378 27.466 5.60135 27.0815 5.76081ZM12.5327 4.13514V5.83784H11V0.162162H13.5411C13.853 0.162162 14.1381 0.212162 14.3962 0.312162C14.6543 0.412162 14.8748 0.551351 15.0577 0.72973C15.2405 0.908108 15.3831 1.11892 15.4852 1.36216C15.5874 1.60541 15.6385 1.86757 15.6385 2.14865C15.6385 2.43514 15.5874 2.69865 15.4852 2.93919C15.3831 3.17973 15.2405 3.38919 15.0577 3.56757C14.8748 3.74595 14.6543 3.88514 14.3962 3.98514C14.1381 4.08513 13.853 4.13514 13.5411 4.13514H12.5327ZM12.5327 2.75676H13.4604C13.6433 2.75676 13.7966 2.69595 13.9202 2.57432C14.0439 2.4527 14.1058 2.31081 14.1058 2.14865C14.1058 1.98649 14.0439 1.84459 13.9202 1.72297C13.7966 1.60135 13.6433 1.54054 13.4604 1.54054H12.5327V2.75676ZM18.1393 5.83784V3.64865H20.1963V5.83784H21.7291V0.162162H20.1963V2.27027H18.1393V0.162162H16.6065V5.83784H18.1393ZM25.8432 4.62162C25.6227 4.62162 25.4157 4.58108 25.2221 4.5C25.0285 4.41892 24.8617 4.30541 24.7219 4.15946C24.5821 4.01351 24.4718 3.84189 24.3912 3.64459C24.3105 3.4473 24.2702 3.23243 24.2702 3C24.2702 2.76757 24.3105 2.5527 24.3912 2.35541C24.4718 2.15811 24.5821 1.98649 24.7219 1.84054C24.8617 1.69459 25.0285 1.58108 25.2221 1.5C25.4157 1.41892 25.6227 1.37838 25.8432 1.37838C26.0637 1.37838 26.2694 1.41892 26.4604 1.5C26.6513 1.58108 26.818 1.69459 26.9605 1.84054C27.103 1.98649 27.2146 2.15811 27.2953 2.35541C27.376 2.5527 27.4163 2.76757 27.4163 3C27.4163 3.23243 27.376 3.4473 27.2953 3.64459C27.2146 3.84189 27.103 4.01351 26.9605 4.15946C26.818 4.30541 26.6513 4.41892 26.4604 4.5C26.2694 4.58108 26.0637 4.62162 25.8432 4.62162ZM32.5791 1.54054V5.83784H31.0464V1.54054H29.4734V0.162162H34.1522V1.54054H32.5791ZM37.7823 6C38.2233 6 38.6361 5.92027 39.0206 5.76081C39.4051 5.60135 39.7386 5.38378 40.0209 5.10811C40.3033 4.83243 40.5251 4.51351 40.6865 4.15135C40.8478 3.78919 40.9285 3.40541 40.9285 3C40.9285 2.59459 40.8478 2.21081 40.6865 1.84865C40.5251 1.48649 40.3033 1.16757 40.0209 0.891892C39.7386 0.616216 39.4051 0.398649 39.0206 0.239189C38.6361 0.0797297 38.2233 0 37.7823 0C37.336 0 36.9219 0.0797297 36.54 0.239189C36.1582 0.398649 35.8261 0.616216 35.5438 0.891892C35.2614 1.16757 35.0396 1.48649 34.8782 1.84865C34.7169 2.21081 34.6362 2.59459 34.6362 3C34.6362 3.40541 34.7169 3.78919 34.8782 4.15135C35.0396 4.51351 35.2614 4.83243 35.5438 5.10811C35.8261 5.38378 36.1582 5.60135 36.54 5.76081C36.9219 5.92027 37.336 6 37.7823 6ZM37.1612 4.5C37.3548 4.58108 37.5618 4.62162 37.7823 4.62162C38.0028 4.62162 38.2085 4.58108 38.3995 4.5C38.5904 4.41892 38.7571 4.30541 38.8996 4.15946C39.0421 4.01351 39.1537 3.84189 39.2344 3.64459C39.3151 3.4473 39.3554 3.23243 39.3554 3C39.3554 2.76757 39.3151 2.5527 39.2344 2.35541C39.1537 2.15811 39.0421 1.98649 38.8996 1.84054C38.7571 1.69459 38.5904 1.58108 38.3995 1.5C38.2085 1.41892 38.0028 1.37838 37.7823 1.37838C37.5618 1.37838 37.3548 1.41892 37.1612 1.5C36.9676 1.58108 36.8009 1.69459 36.661 1.84054C36.5212 1.98649 36.411 2.15811 36.3303 2.35541C36.2496 2.5527 36.2093 2.76757 36.2093 3C36.2093 3.23243 36.2496 3.4473 36.3303 3.64459C36.411 3.84189 36.5212 4.01351 36.661 4.15946C36.8009 4.30541 36.9676 4.41892 37.1612 4.5ZM43.6712 6C44.0262 6 44.3435 5.95 44.6231 5.85C44.9028 5.75 45.1394 5.61486 45.333 5.44459C45.5266 5.27432 45.6745 5.07703 45.7767 4.8527C45.8789 4.62838 45.93 4.38919 45.93 4.13514C45.93 3.80541 45.8654 3.53514 45.7364 3.32432C45.6073 3.11351 45.446 2.94324 45.2524 2.81351C45.0588 2.68378 44.8477 2.58108 44.6191 2.50541C44.3905 2.42973 44.1795 2.35946 43.9858 2.29459C43.7922 2.22973 43.6309 2.16081 43.5018 2.08784C43.3728 2.01486 43.3082 1.91351 43.3082 1.78378C43.3082 1.65946 43.3633 1.5473 43.4736 1.4473C43.5838 1.3473 43.7304 1.2973 43.9132 1.2973C44.0531 1.2973 44.1795 1.32027 44.2924 1.36622C44.4053 1.41216 44.5021 1.46486 44.5828 1.52432C44.6796 1.58919 44.7657 1.66216 44.8409 1.74324L45.7283 0.810811C45.5992 0.659459 45.4406 0.524324 45.2524 0.405405C45.091 0.302703 44.8867 0.209459 44.6393 0.125676C44.3919 0.0418919 44.0961 0 43.7519 0C43.4292 0 43.1361 0.0486487 42.8726 0.145946C42.6091 0.243243 42.3846 0.372973 42.199 0.535135C42.0135 0.697297 41.8696 0.883784 41.7674 1.09459C41.6652 1.30541 41.6142 1.52162 41.6142 1.74324C41.6142 2.07297 41.6787 2.34324 41.8078 2.55405C41.9368 2.76486 42.0982 2.93514 42.2918 3.06486C42.4854 3.19459 42.6965 3.2973 42.925 3.37297C43.1536 3.44865 43.3647 3.51892 43.5583 3.58378C43.7519 3.64865 43.9132 3.71757 44.0423 3.79054C44.1714 3.86351 44.2359 3.96486 44.2359 4.09459C44.2359 4.25676 44.1714 4.39865 44.0423 4.52027C43.9132 4.64189 43.7358 4.7027 43.5099 4.7027C43.327 4.7027 43.1617 4.67162 43.0138 4.60946C42.8659 4.5473 42.7382 4.47838 42.6306 4.4027C42.5069 4.31081 42.3967 4.20811 42.2998 4.09459L41.4125 5.02703C41.5738 5.21081 41.7647 5.37297 41.9852 5.51351C42.1735 5.63784 42.4074 5.75 42.6871 5.85C42.9667 5.95 43.2948 6 43.6712 6ZM48.3501 2.67568V5.83784H46.8174V0.162162H48.1484L50.5685 3.32432V0.162162H52.1012V5.83784H50.7782L48.3501 2.67568ZM54.4003 5.83784L54.8037 4.62162H56.6591L57.0624 5.83784H58.7161L56.5784 0.162162H54.8843L52.7466 5.83784H54.4003ZM60.8942 5.83784V4.13514H61.9026C62.2145 4.13514 62.4995 4.08513 62.7577 3.98514C63.0158 3.88514 63.2363 3.74595 63.4192 3.56757C63.602 3.38919 63.7445 3.17973 63.8467 2.93919C63.9489 2.69865 64 2.43514 64 2.14865C64 1.86757 63.9489 1.60541 63.8467 1.36216C63.7445 1.11892 63.602 0.908108 63.4192 0.72973C63.2363 0.551351 63.0158 0.412162 62.7577 0.312162C62.4995 0.212162 62.2145 0.162162 61.9026 0.162162H59.3615V5.83784H60.8942ZM60.8942 2.75676H61.8219C62.0048 2.75676 62.158 2.69595 62.2817 2.57432C62.4054 2.4527 62.4673 2.31081 62.4673 2.14865C62.4673 1.98649 62.4054 1.84459 62.2817 1.72297C62.158 1.60135 62.0048 1.54054 61.8219 1.54054H60.8942V2.75676ZM55.7314 1.74324L55.207 3.40541H56.2557L55.7314 1.74324Z" fill="white"/>
<path fill-rule="evenodd" clip-rule="evenodd" d="M0 6L4 0L8 6H0Z" fill="url(#paint0_linear_0_891)"/>
<defs>
<linearGradient id="paint0_linear_0_891" x1="4" y1="7.5" x2="6.46575" y2="0.924658" gradientUnits="userSpaceOnUse">
<stop stop-color="#FFC593"/>
<stop offset="0.519452" stop-color="#BC7198"/>
<stop offset="1" stop-color="#5A77FF"/>
</linearGradient>
</defs>
</svg>
