<svg width="52" height="10" viewBox="0 0 52 10" fill="none" xmlns="http://www.w3.org/2000/svg">
<path fill-rule="evenodd" clip-rule="evenodd" d="M39.8556 9.892C40.3597 9.892 40.8105 9.83341 41.2082 9.71622C41.6059 9.59904 41.94 9.43589 42.2105 9.22679C42.4811 9.01769 42.7053 8.76149 42.8834 8.45818C43.0614 8.15487 43.1897 7.82399 43.2683 7.46553C43.347 7.10708 43.3863 6.71415 43.3863 6.28676V0.110294H41.7978V0.834099H41.7701C41.4834 0.56296 41.1539 0.356158 40.7816 0.213695C40.4094 0.0712316 40.0221 0 39.6198 0C38.9863 0 38.4175 0.149357 37.9134 0.44807C37.4094 0.746783 37.0175 1.16153 36.7377 1.69233C36.4579 2.22312 36.3181 2.81939 36.3181 3.48116C36.3181 4.15211 36.4649 4.74724 36.7585 5.26654C37.0522 5.78585 37.4556 6.18451 37.9689 6.46255C38.4822 6.74058 39.0602 6.8796 39.703 6.8796C40.5631 6.8796 41.2637 6.59926 41.8048 6.0386H41.8325V6.7693C41.8325 7.25643 41.6522 7.66085 41.2915 7.98254C40.9308 8.30423 40.4221 8.46507 39.7654 8.46507C39.3169 8.46507 38.9227 8.40993 38.5828 8.29963C38.2429 8.18934 37.851 8.017 37.4071 7.78263L37.0325 9.17509C37.4209 9.40487 37.8579 9.5818 38.3435 9.70588C38.829 9.82996 39.3331 9.892 39.8556 9.892ZM6.80594 3.56388V7.00368H5.21751V3.41222C5.21751 2.09789 4.75739 1.44072 3.83716 1.44072C3.35161 1.44072 2.95277 1.63028 2.64063 2.00942C2.32849 2.38856 2.17242 2.90671 2.17242 3.56388V6.99678H0.583984V0.110294H2.17242V1.06158H2.19323C2.47531 0.721507 2.80479 0.460708 3.18167 0.279182C3.55855 0.0976562 3.95046 0.00689338 4.35739 0.00689338C5.32386 0.00689338 6.01288 0.388327 6.42444 1.15119H6.45219C6.74352 0.778952 7.1019 0.495175 7.52733 0.299862C7.95276 0.10455 8.42213 0.00689338 8.93542 0.00689338C9.71692 0.00689338 10.3181 0.256204 10.7389 0.754825C11.1597 1.25345 11.3701 2.00597 11.3701 3.01241V7.00368H9.78166V3.41222C9.78166 2.09789 9.32849 1.44072 8.42213 1.44072C7.9597 1.44072 7.57473 1.63028 7.26722 2.00942C6.9597 2.38856 6.80594 2.90671 6.80594 3.56388ZM17.8741 6.07307C17.347 6.76241 16.6117 7.10708 15.6684 7.10708C15.1921 7.10708 14.747 7.02321 14.3331 6.85547C13.9192 6.68773 13.5643 6.45221 13.2684 6.1489C12.9724 5.84559 12.7389 5.47335 12.5678 5.03217C12.3967 4.59099 12.3111 4.10846 12.3111 3.58456C12.3111 3.07445 12.3967 2.59651 12.5678 2.15074C12.7389 1.70496 12.9724 1.32583 13.2684 1.01333C13.5643 0.700827 13.9181 0.454963 14.3296 0.275735C14.7412 0.0965074 15.1828 0.00689338 15.6545 0.00689338C16.5562 0.00689338 17.2707 0.317096 17.7978 0.9375H17.8256V0.110294H19.414V6.99678H17.895V6.07307H17.8741ZM15.9181 5.67325C15.3308 5.67325 14.8522 5.47909 14.4822 5.09076C14.1123 4.70244 13.9273 4.20267 13.9273 3.59145C13.9273 2.94347 14.1181 2.42302 14.4996 2.0301C14.8811 1.63718 15.3562 1.44072 15.925 1.44072C16.4892 1.44072 16.9574 1.64637 17.3296 2.05767C17.7019 2.46898 17.888 2.98024 17.888 3.59145C17.888 4.20267 17.6973 4.70244 17.3158 5.09076C16.9343 5.47909 16.4684 5.67325 15.9181 5.67325ZM27.3053 2.94347V7.00368H25.7169V3.35018C25.7169 2.99173 25.6845 2.68842 25.6198 2.44026C25.5551 2.1921 25.4556 1.99563 25.3215 1.85087C25.1874 1.70611 25.0314 1.60156 24.8533 1.53722C24.6753 1.47289 24.4614 1.44072 24.2117 1.44072C23.666 1.44072 23.2302 1.62454 22.9042 1.99219C22.5782 2.35983 22.4152 2.87454 22.4152 3.53631V6.99678H20.8267V0.110294H22.4152V1.05469H22.436C22.7273 0.714614 23.0741 0.454963 23.4764 0.275735C23.8788 0.0965074 24.3065 0.00689338 24.7597 0.00689338C25.5551 0.00689338 26.1782 0.247013 26.629 0.727252C27.0799 1.20749 27.3053 1.94623 27.3053 2.94347ZM31.5967 7.10708C32.54 7.10708 33.2753 6.76241 33.8025 6.07307H33.8233V6.99678H35.3423V0.110294H33.7539V0.9375H33.7262C33.199 0.317096 32.4845 0.00689338 31.5828 0.00689338C31.1111 0.00689338 30.6695 0.0965074 30.2579 0.275735C29.8464 0.454963 29.4926 0.700827 29.1967 1.01333C28.9007 1.32583 28.6672 1.70496 28.4961 2.15074C28.325 2.59651 28.2395 3.07445 28.2395 3.58456C28.2395 4.10846 28.325 4.59099 28.4961 5.03217C28.6672 5.47335 28.9007 5.84559 29.1967 6.1489C29.4926 6.45221 29.8475 6.68773 30.2614 6.85547C30.6753 7.02321 31.1204 7.10708 31.5967 7.10708ZM30.4105 5.09076C30.7805 5.47909 31.2591 5.67325 31.8464 5.67325C32.3967 5.67325 32.8626 5.47909 33.2441 5.09076C33.6256 4.70244 33.8163 4.20267 33.8163 3.59145C33.8163 2.98024 33.6302 2.46898 33.2579 2.05767C32.8857 1.64637 32.4175 1.44072 31.8533 1.44072C31.2845 1.44072 30.8094 1.63718 30.4279 2.0301C30.0464 2.42302 29.8556 2.94347 29.8556 3.59145C29.8556 4.20267 30.0406 4.70244 30.4105 5.09076ZM38.4926 4.88396C38.8649 5.24472 39.3377 5.42509 39.9111 5.42509C40.4892 5.42509 40.9597 5.23552 41.3227 4.85639C41.6857 4.47725 41.8672 3.99586 41.8672 3.41222C41.8672 2.83318 41.6811 2.36213 41.3088 1.99908C40.9365 1.63603 40.4707 1.4545 39.9111 1.4545C39.3238 1.4545 38.8475 1.63833 38.4822 2.00597C38.1169 2.37362 37.9342 2.84926 37.9342 3.4329C37.9342 4.03952 38.1204 4.52321 38.4926 4.88396ZM47.9273 7.10708C48.5747 7.10708 49.1446 6.98989 49.6371 6.75551C50.1296 6.52114 50.5331 6.20404 50.8475 5.80423L49.7377 4.85983C49.303 5.40211 48.7273 5.67325 48.0105 5.67325C47.5019 5.67325 47.0706 5.53309 46.7169 5.25276C46.3631 4.97243 46.1354 4.5887 46.0337 4.10156H51.0834C51.1111 3.93612 51.125 3.72702 51.125 3.47426C51.125 2.8079 50.9886 2.21278 50.7157 1.68888C50.4429 1.16498 50.0498 0.753676 49.5365 0.454963C49.0232 0.15625 48.4313 0.00689338 47.7608 0.00689338C47.2845 0.00689338 46.8383 0.0930607 46.4221 0.265395C46.0059 0.43773 45.6475 0.677849 45.347 0.985754C45.0464 1.29366 44.8105 1.6682 44.6394 2.10938C44.4683 2.55055 44.3828 3.03079 44.3828 3.55009C44.3828 4.25322 44.5377 4.87707 44.8475 5.42165C45.1574 5.96622 45.5805 6.38327 46.1169 6.67279C46.6533 6.96232 47.2568 7.10708 47.9273 7.10708ZM46.0614 2.82629H49.5296C49.4279 2.3989 49.2325 2.06112 48.9435 1.81296C48.6545 1.5648 48.288 1.44072 47.8441 1.44072C47.4048 1.44072 47.0256 1.56135 46.7065 1.80262C46.3874 2.04389 46.1724 2.38511 46.0614 2.82629Z" fill="white"/>
</svg>
